<svg id="source" width="22" height="22" viewBox="0 0 22 22" fill="none" xmlns="http://www.w3.org/2000/svg">
<circle cx="11" cy="11" r="11" fill="black" fill-opacity="0.8"></circle>
<path fill-rule="evenodd" clip-rule="evenodd" d="M15.0834 4.58333H13.3334V5.74999H15.0834C15.7268 5.74999 16.25 6.27324 16.25 6.91666V8.66666H17.4167V6.91666C17.4167 5.62983 16.3702 4.58333 15.0834 4.58333ZM16.25 15.0833C16.25 15.7267 15.7268 16.25 15.0834 16.25H13.3334V17.4167H15.0834C16.3702 17.4167 17.4167 16.3702 17.4167 15.0833V13.3333H16.25V15.0833ZM5.75004 15.0833V13.3333H4.58337V15.0833C4.58337 16.3702 5.62987 17.4167 6.91671 17.4167H8.66671V16.25H6.91671C6.27329 16.25 5.75004 15.7267 5.75004 15.0833ZM5.75004 6.91666C5.75004 6.27324 6.27329 5.74999 6.91671 5.74999H8.66671V4.58333H6.91671C5.62987 4.58333 4.58337 5.62983 4.58337 6.91666V8.66666H5.75004V6.91666ZM9.25004 10.7083C9.25004 9.90449 9.90454 9.24999 10.7084 9.24999C11.5122 9.24999 12.1667 9.90449 12.1667 10.7083C12.1667 11.5122 11.5122 12.1667 10.7084 12.1667C9.90454 12.1667 9.25004 11.5122 9.25004 10.7083ZM13.625 14.5C13.849 14.5 14.073 14.4148 14.244 14.2439C14.5852 13.9021 14.5852 13.3479 14.244 13.0061L13.0703 11.833C13.2342 11.4906 13.3334 11.1126 13.3334 10.7083C13.3334 9.26108 12.1556 8.08333 10.7084 8.08333C9.26112 8.08333 8.08337 9.26108 8.08337 10.7083C8.08337 12.1556 9.26112 13.3333 10.7084 13.3333C11.1126 13.3333 11.4906 13.2342 11.833 13.0702L13.0061 14.2439C13.177 14.4148 13.401 14.5 13.625 14.5Z" fill="white"></path>
</svg>